Coordinates
version=1
nRows=19
nColumns=18
inDegrees=yes

Units are S.I. units (second, meters, Newtons, ...)
If the header above contains a line with 'inDegrees', this indicates whether rotational values are in degrees (yes) or radians (no).

endheader
time	ground_thorax_rot_x	ground_thorax_rot_y	ground_thorax_rot_z	ground_thorax_tx	ground_thorax_ty	ground_thorax_tz	clav_prot	clav_elev	scapula_abduction	scapula_elevation	scapula_upward_rot	scapula_winging	plane_elv	shoulder_elv	axial_rot	elbow_flexion	pro_sup
      4.23000000	     -1.76407200	    -13.03750653	    -13.16392092	      0.00000000	      0.00000000	      0.00000000	    -43.68935413	      8.12627081	      1.53332598	     -2.31861741	     83.14344738	    -11.26440693	     29.40403793	     90.31731177	     -9.86061300	      0.00000000	     34.32000000
      4.24000000	     -1.80763727	    -12.92905596	    -13.15931213	      0.00000000	      0.00000000	      0.00000000	    -43.76324070	      8.18036738	      1.27219888	     -2.30703226	     82.98439491	    -11.35222577	     29.54831865	     90.37055666	     -9.90705373	      0.00000000	     34.32000000
      4.25000000	     -1.66496335	    -13.08180805	    -13.07299976	      0.00000000	      0.00000000	      0.00000000	    -43.76175213	      8.34974682	      1.37471236	     -2.16979269	     83.16729205	    -11.36669210	     29.52874262	     90.38467615	    -10.32774729	      0.00000000	     34.32000000
      4.26000000	     -2.06233645	    -12.84064933	    -13.34912490	      0.00000000	      0.00000000	      0.00000000	    -43.93310490	      7.84655521	      0.97125003	     -2.56283185	     82.86518662	    -11.38504420	     29.60886653	     90.31947236	     -9.90881556	      0.00000000	     34.32000000
      4.27000000	     -1.68998124	    -13.06056105	    -13.07693312	      0.00000000	      0.00000000	      0.00000000	    -43.86432553	      8.34044382	      1.21248827	     -2.18323576	     83.18099123	    -11.42640107	     29.57183212	     90.29880429	    -10.39672302	      0.00000000	     34.32000000
      4.28000000	     -1.92562669	    -12.84792691	    -13.21836691	      0.00000000	      0.00000000	      0.00000000	    -44.03454084	      8.10006015	      0.86131913	     -2.37975386	     83.02588183	    -11.49383459	     29.63189639	     90.18495459	    -10.16875668	      0.00000000	     34.32000000
      4.29000000	     -1.97957787	    -12.86673837	    -13.23768924	      0.00000000	      0.00000000	      0.00000000	    -44.01661970	      8.08395171	      0.89607807	     -2.38913286	     83.02636871	    -11.47809238	     29.55363007	     90.18822756	    -10.30142578	      0.00000000	     34.32000000
      4.30000000	     -2.12550756	    -12.81802034	    -13.42995040	      0.00000000	      0.00000000	      0.00000000	    -44.05729786	      7.72384457	      0.86074076	     -2.64586732	     82.95837836	    -11.41257755	     29.57952922	     90.23483071	     -9.80248329	      0.00000000	     34.32000000
      4.31000000	     -2.04177949	    -12.92351957	    -13.31747376	      0.00000000	      0.00000000	      0.00000000	    -43.97071590	      7.78888926	      0.99206711	     -2.59431876	     82.95795638	    -11.37686198	     29.68425989	     90.32997245	     -9.58365388	      0.00000000	     34.32000000
      4.32000000	     -1.75083010	    -13.17454250	    -13.06231700	      0.00000000	      0.00000000	      0.00000000	    -43.92348400	      8.19630809	      1.28932230	     -2.26388209	     83.36773277	    -11.39260559	     29.57515322	     89.96205005	     -9.50130407	      0.00000000	     34.32000000
      4.33000000	     -1.92738974	    -12.87754777	    -13.16825499	      0.00000000	      0.00000000	      0.00000000	    -44.13754029	      7.98965014	      0.67253755	     -2.46980430	     82.97339411	    -11.53662473	     29.92333921	     90.19968244	     -9.72549266	      0.00000000	     34.32000000
      4.34000000	     -1.78182053	    -13.03540485	    -13.08587798	      0.00000000	      0.00000000	      0.00000000	    -44.10982739	      8.22138578	      0.93569552	     -2.26741024	     83.32820255	    -11.52434785	     29.64987788	     89.90921796	     -9.48341692	      0.00000000	     34.32000000
      4.35000000	     -1.72061743	    -12.88790623	    -13.08791155	      0.00000000	      0.00000000	      0.00000000	    -44.12912543	      8.33345096	      0.71628782	     -2.21780715	     83.11977203	    -11.60249588	     29.32435180	     90.79715928	    -16.94996087	      0.00000000	     34.32000000
      4.36000000	     -1.77971973	    -12.81910634	    -13.07128543	      0.00000000	      0.00000000	      0.00000000	    -44.22977185	      8.32906289	      0.52846432	     -2.23209222	     83.09648366	    -11.66933799	     29.49801528	     90.64875424	    -16.24726610	      0.00000000	     34.32000000
      4.37000000	     -1.95384828	    -12.72725802	    -13.24003125	      0.00000000	      0.00000000	      0.00000000	    -44.25768443	      8.04002979	      0.41995581	     -2.45130536	     82.92537979	    -11.63552075	     29.52807947	     90.67937966	    -14.87939339	      0.00000000	     34.32000000
      4.38000000	     -1.90747452	    -12.72462785	    -13.19005361	      0.00000000	      0.00000000	      0.00000000	    -44.25404026	      8.04409097	      0.42279221	     -2.44856224	     82.92231526	    -11.63456501	     29.52784241	     90.67090640	    -14.88511366	      0.00000000	     34.32000000
      4.39000000	     -1.64843230	    -12.79853782	    -12.99455041	      0.00000000	      0.00000000	      0.00000000	    -44.28777234	      8.33497352	      0.41559624	     -2.23500189	     83.07955974	    -11.71110891	     29.63843952	     90.53786643	    -14.23209184	      0.00000000	     34.32000000
      4.40000000	     -1.93281810	    -12.68303502	    -13.27775571	      0.00000000	      0.00000000	      0.00000000	    -44.27884827	      7.84652108	      0.26362064	     -2.61037977	     82.70685848	    -11.62937454	     29.65598917	     90.73473846	    -12.92117718	      0.00000000	     34.32000000
      4.41000000	     -1.88383090	    -12.66589123	    -13.18129882	      0.00000000	      0.00000000	      0.00000000	    -44.28105155	      7.86746696	      0.24469992	     -2.59776795	     82.69361760	    -11.63892915	     29.61389765	     90.67675846	    -12.93438634	      0.00000000	     34.32000000
